<svg width="57" height="52" viewBox="0 0 57 52" fill="none" xmlns="http://www.w3.org/2000/svg">
<ellipse cx="44.6972" cy="13.4925" rx="1.36495" ry="3.63999" fill="#9E13E0"/>
<ellipse cx="1.36495" cy="3.63999" rx="1.36495" ry="3.63999" transform="matrix(-1 0 0 1 15.2952 9.85254)" fill="#9E13E0"/>
<path d="M48.3506 22.1972C50.4549 21.2113 55.0616 18.5799 56.6541 15.9409C56.3128 17.704 54.1971 21.6512 50.2843 26.2921L43.5164 34.1977C41.7142 36.5888 38.1958 41.5023 37.7124 43.0961C37.6918 43.1884 37.6739 43.2747 37.6584 43.3546C37.6638 43.2823 37.6822 43.1957 37.7124 43.0961C38.0965 41.3725 39.3896 37.5665 41.9808 34.1977L44.7676 29.6478L46.3032 26.7471L48.3506 22.1972Z" fill="#9E13E0"/>
<path d="M8.53955 22.1972C6.43525 21.2113 1.82853 18.5799 0.236082 15.9409C0.57732 17.704 2.693 21.6512 6.60587 26.2921L13.3738 34.1977C15.1759 36.5888 18.6943 41.5023 19.1778 43.0961C19.1983 43.1884 19.2163 43.2747 19.2317 43.3546C19.2263 43.2823 19.208 43.1957 19.1778 43.0961C18.7937 41.3725 17.5006 37.5665 14.9093 34.1977L12.1226 29.6478L10.587 26.7471L8.53955 22.1972Z" fill="#9E13E0"/>
<path d="M42.8385 24.0708L38.2887 25.0945C38.4707 28.78 37.0754 32.7727 36.355 34.3083C40.0404 31.6238 42.2129 26.3648 42.8385 24.0708Z" fill="#9E13E0"/>
<path d="M14.1127 24.0708L18.6625 25.0945C18.4805 28.78 19.8758 32.7727 20.5962 34.3083C16.9108 31.6238 14.7383 26.3648 14.1127 24.0708Z" fill="#9E13E0"/>
<path d="M23.3789 43.6946C22.924 40.9646 20.9144 39.7513 19.9666 39.4858C20.831 40.4413 21.578 44.9648 21.8434 47.1071C22.5258 50.8381 26.488 51.9225 28.3838 51.9983C33.3431 51.5433 34.8483 48.5479 34.981 47.1071C35.163 44.1041 36.3081 40.8129 36.8579 39.5427C34.5374 40.2707 33.5782 42.614 33.3886 43.6946C33.4796 49.1546 30.09 50.9366 28.3838 51.1452C23.8908 49.6664 23.9477 47.1071 23.3789 43.6946Z" fill="#9E13E0"/>
<path d="M30.2031 26.2866H26.6201L26.5632 38.5147C26.5632 40.6987 25.7291 44.5055 25.312 46.1359C26.859 45.0894 28.0419 40.9603 28.44 39.0266C29.1225 43.0761 30.8097 45.4534 31.5681 46.1359C30.8856 44.4524 30.3737 40.3537 30.2031 38.5147V26.2866Z" fill="#9E13E0"/>
<path d="M5.18339 2.91697C6.68115 1.76048 10.3933 -0.427265 13.2596 0.0732172C16.1258 0.573733 18.321 1.49543 19.0603 1.89353C20.8995 3.0121 26.1471 4.96456 32.4256 3.82712C33.639 3.5427 36.623 2.66688 38.8523 1.43845C41.0818 0.210029 44.2929 0.0163437 45.6199 0.0732172C46.3214 0.0732303 48.4977 0.630859 51.5916 2.86033L55.6863 6.72751C56.236 7.4289 57.2109 9.18428 56.7107 10.5947C56.0851 12.3578 55.4589 13.0974 52.3309 16.2256C51.4208 17.0029 48.919 18.8309 46.1893 19.9228L41.6395 21.9697C40.1797 22.5384 36.7707 23.6311 34.8143 23.4492C34.2266 23.3544 32.7095 22.9707 31.3445 22.1972C29.9798 21.4239 28.8045 21.2304 28.3875 21.2304C27.7619 21.3063 25.9537 21.7657 23.7244 22.9941C21.495 24.2226 16.5387 22.5581 14.3396 21.5722L10.7 19.9228C9.12651 19.3162 5.44487 17.4994 3.30644 15.0879C1.16988 12.6785 0.596784 11.7719 0.57695 11.6191C0.197796 11.0314 -0.378565 9.52553 0.349411 8.20603L1.20195 6.72751L5.18339 2.91697ZM17.574 8.80466C14.8898 5.5289 11.603 5.50526 10.2947 5.9033L7.50761 6.64255C8.98629 6.7563 12.2164 7.21208 13.3084 8.12205C11.4315 8.02729 7.09847 8.1559 4.77812 9.42966C6.12418 10.3397 9.0207 12.3646 9.83965 13.1836C10.2189 13.7144 11.9666 14.7763 15.9246 14.7763C19.883 14.7763 22.5416 13.7144 23.3758 13.1836C22.5606 13.0888 20.2584 12.0805 17.574 8.80466ZM48.4129 5.9033C47.1046 5.50529 43.8177 5.52898 41.1336 8.80466C38.4497 12.0799 36.1483 13.0885 35.3328 13.1836C36.1673 13.7145 38.8251 14.7763 42.783 14.7763C46.7409 14.7763 48.4886 13.7144 48.868 13.1836C49.6869 12.3646 52.5834 10.3397 53.9295 9.42966C51.6091 8.15592 47.2761 8.02728 45.3992 8.12205C46.4912 7.21205 49.7213 6.7563 51.2 6.64255L48.4129 5.9033Z" fill="#9E13E0"/>
</svg>
